User Type,Username,Date,Text
,maizena,2012-10-15T20:34Z,"Format                           : Matroska
File size                        : 7.17 GiB
Duration                         : 4h 23mn
Overall bit rate                 : 3 897 Kbps
Movie name                       : ESDLA: El retorno del Rey x lagartish
Encoded date                     : UTC 2011-06-19 21:06:24
Writing application              : mkvmerge v2.9.8 ('C'est le bon') built on Aug 13 2009 12:49:06
Writing library                  : libebml v0.7.7 + libmatroska v0.8.1

Video
ID                               : 1
Format                           : AVC
Format/Info                      : Advanced Video Codec
Format profile                   : High@L4.1
Format settings, CABAC           : Yes
Format settings, ReFrames        : 12 frames
Codec ID                         : V_MPEG4/ISO/AVC
Duration                         : 4h 23mn
Bit rate                         : 3 000 Kbps
Width                            : 1 280 pixels
Height                           : 532 pixels
Display aspect ratio             : 2.40:1
Frame rate                       : 23.976 fps
Color space                      : YUV
Chroma subsampling               : 4:2:0
Bit depth                        : 8 bits
Scan type                        : Progressive
Bits/(Pixel*Frame)               : 0.184
Stream size                      : 5.38 GiB (75%)
Writing library                  : x264 core 115 r1995 c1e60b9
Encoding settings                : cabac=1 / ref=12 / deblock=1:-3:-3 / analyse=0x3:0x133 / me=umh / subme=10 / psy=1 / psy_rd=2.00:2.00 / mixed_ref=1 / me_range=24 / chroma_me=0 / trellis=2 / 8x8dct=1 / cqm=0 / deadzone=21,11 / fast_pskip=1 / chroma_qp_offset=-4 / threads=12 / sliced_threads=0 / nr=0 / decimate=1 / interlaced=0 / bluray_compat=0 / constrained_intra=0 / bframes=6 / b_pyramid=2 / b_adapt=2 / b_bias=0 / direct=1 / weightb=1 / open_gop=0 / weightp=2 / keyint=250 / keyint_min=23 / scenecut=100 / intra_refresh=0 / rc_lookahead=100 / rc=2pass / mbtree=1 / bitrate=3000 / ratetol=1.0 / qcomp=0.60 / qpmin=0 / qpmax=69 / qpstep=4 / cplxblur=20.0 / qblur=0.5 / ip_ratio=1.40 / aq=1:2.00
Language                         : English

Audio #1
ID                               : 2
Format                           : AC-3
Format/Info                      : Audio Coding 3
Mode extension                   : CM (complete main)
Codec ID                         : A_AC3
Duration                         : 4h 23mn
Bit rate mode                    : Constant
Bit rate                         : 448 Kbps
Channel(s)                       : 6 channels
Channel positions                : Front: L C R, Side: L R, LFE
Sampling rate                    : 48.0 KHz
Bit depth                        : 16 bits
Compression mode                 : Lossy
Stream size                      : 843 MiB (11%)
Language                         : Spanish

Audio #2
ID                               : 3
Format                           : AC-3
Format/Info                      : Audio Coding 3
Mode extension                   : CM (complete main)
Codec ID                         : A_AC3
Duration                         : 4h 23mn
Bit rate mode                    : Constant
Bit rate                         : 448 Kbps
Channel(s)                       : 6 channels
Channel positions                : Front: L C R, Side: L R, LFE
Sampling rate                    : 48.0 KHz
Bit depth                        : 16 bits
Compression mode                 : Lossy
Stream size                      : 843 MiB (11%)
Language                         : English

Text #1
ID                               : 4
Format                           : UTF-8
Codec ID                         : S_TEXT/UTF8
Codec ID/Info                    : UTF-8 Plain Text
Title                            : forzados
Language                         : Spanish

Text #2
ID                               : 5
Format                           : UTF-8
Codec ID                         : S_TEXT/UTF8
Codec ID/Info                    : UTF-8 Plain Text
Title                            : completos
Language                         : Spanish

Text #3
ID                "
,maizena,2012-10-15T20:35Z,"ANIﾃ前SESDLA.La.Comunidad.del.Anillo.720p.mkv
Format                           : Matroska
File size                        : 8.50 GiB
Duration                         : 2h 58mn
Overall bit rate                 : 6 824 Kbps
Encoded date                     : UTC 2010-03-18 20:46:30
Writing application              : mkvmerge v3.0.0 ('Hang up your Hang-Ups') built on Dec 12 2009 16:56:31
Writing library                  : libebml v0.7.8 + libmatroska v0.8.1

Video
ID                               : 1
Format                           : AVC
Format/Info                      : Advanced Video Codec
Format profile                   : High@L3.1
Format settings, CABAC           : Yes
Format settings, ReFrames        : 5 frames
Codec ID                         : V_MPEG4/ISO/AVC
Duration                         : 2h 58mn
Bit rate                         : 4 866 Kbps
Width                            : 1 280 pixels
Height                           : 528 pixels
Display aspect ratio             : 2.40:1
Frame rate                       : 23.976 fps
Color space                      : YUV
Chroma subsampling               : 4:2:0
Bit depth                        : 8 bits
Scan type                        : Progressive
Bits/(Pixel*Frame)               : 0.300
Stream size                      : 5.89 GiB (69%)
Writing library                  : x264 core 89 r1471M 1144615
Encoding settings                : cabac=1 / ref=5 / deblock=1:0:0 / analyse=0x3:0x113 / me=umh / subme=7 / psy=1 / psy_rd=1.00:0.20 / mixed_ref=1 / me_range=16 / chroma_me=1 / trellis=1 / 8x8dct=1 / cqm=0 / deadzone=21,11 / fast_pskip=1 / chroma_qp_offset=-3 / threads=6 / sliced_threads=0 / nr=0 / decimate=1 / interlaced=0 / constrained_intra=0 / bframes=3 / b_pyramid=2 / b_adapt=1 / b_bias=0 / direct=3 / wpredb=1 / wpredp=0 / keyint=250 / keyint_min=25 / scenecut=40 / intra_refresh=0 / rc_lookahead=40 / rc=2pass / mbtree=1 / bitrate=4866 / ratetol=1.0 / qcomp=0.60 / qpmin=10 / qpmax=51 / qpstep=4 / cplxblur=20.0 / qblur=0.5 / ip_ratio=1.40 / aq=1:1.00 / pulldown=0
Language                         : English

Audio #1
ID                               : 2
Format                           : DTS
Format/Info                      : Digital Theater Systems
Format profile                   : ES
Codec ID                         : A_DTS
Duration                         : 2h 58mn
Bit rate mode                    : Constant
Bit rate                         : 1 510 Kbps
Channel(s)                       : 6 channels
Channel positions                : Front: L C R, Side: L R, LFE
Sampling rate                    : 48.0 KHz
Bit depth                        : 24 bits
Compression mode                 : Lossy
Stream size                      : 1.88 GiB (22%)
Language                         : English

Audio #2
ID                               : 5
Format                           : AC-3
Format/Info                      : Audio Coding 3
Mode extension                   : CM (complete main)
Codec ID                         : A_AC3
Duration                         : 2h 58mn
Bit rate mode                    : Constant
Bit rate                         : 448 Kbps
Channel(s)                       : 6 channels
Channel positions                : Front: L C R, Side: L R, LFE
Sampling rate                    : 48.0 KHz
Bit depth                        : 16 bits
Compression mode                 : Lossy
Stream size                      : 572 MiB (7%)
Language                         : Spanish

Text #1
ID                               : 3
Format                           : UTF-8
Codec ID                         : S_TEXT/UTF8
Codec ID/Info                    : UTF-8 Plain Text
Language                         : English

Text #2
ID                               : 4
Format                           : UTF-8
Codec ID                         : S_TEXT/UTF8
Codec ID/Info                    : UTF-8 Plain Text
Language                         : Spanish
"
,maizena,2012-10-16T13:41Z,"MI CATALOGO

https://thepiratebay.se/user/maizena"
